<svg width="18" height="18" viewBox="0 0 18 18" fill="none" xmlns="http://www.w3.org/2000/svg">
<path d="M15.7502 15.7502L12.4929 12.4929M12.4929 12.4929C13.0501 11.9357 13.492 11.2743 13.7936 10.5463C14.0951 9.81834 14.2503 9.03811 14.2503 8.25015C14.2503 7.4622 14.0951 6.68197 13.7936 5.95399C13.492 5.22602 13.0501 4.56457 12.4929 4.0074C11.9357 3.45024 11.2743 3.00827 10.5463 2.70673C9.81834 2.4052 9.03811 2.25 8.25015 2.25C7.4622 2.25 6.68197 2.4052 5.95399 2.70673C5.22602 3.00827 4.56457 3.45024 4.0074 4.0074C2.88216 5.13265 2.25 6.65881 2.25 8.25015C2.25 9.84149 2.88216 11.3677 4.0074 12.4929C5.13265 13.6182 6.65881 14.2503 8.25015 14.2503C9.84149 14.2503 11.3677 13.6182 12.4929 12.4929Z" stroke="black" stroke-width="1.6" stroke-linecap="round" stroke-linejoin="round"/>
</svg>
