<svg width="32" height="32" viewBox="0 0 32 32" fill="none" xmlns="http://www.w3.org/2000/svg">
<path d="M30.1742 13.1796L30.174 13.1684C30.1541 11.9607 30.1048 10.9234 29.986 10.0346C29.7775 8.48809 29.3424 7.2586 28.3766 6.2915C27.4095 5.32571 26.18 4.89065 24.6334 4.68214L30.1742 13.1796ZM30.1742 13.1796L30.1761 13.1906M30.1742 13.1796L30.1761 13.1906M30.1761 13.1906C30.191 13.2773 30.1926 13.3658 30.1807 13.453L30.1792 13.4637M30.1761 13.1906L30.1792 13.4637M30.1792 13.4637L30.1794 13.4745M30.1792 13.4637L30.1794 13.4745M30.1794 13.4745C30.1887 14.228 30.1887 15.0431 30.1887 15.926V16.0753C30.1887 18.5299 30.1884 20.4598 29.986 21.9666C29.7775 23.5132 29.3424 24.7427 28.3766 25.7098C27.4095 26.6756 26.1799 27.1107 24.6334 27.3192C23.1252 27.5216 21.1966 27.5219 18.7421 27.5219H13.2595C10.8049 27.5219 8.87495 27.5216 7.36816 27.3192C5.82161 27.1107 4.5921 26.6756 3.62498 25.7098C2.65918 24.7427 2.22411 23.5131 2.01561 21.9666C1.81322 20.4584 1.81292 18.5298 1.81292 16.0753V15.926C1.81292 15.0431 1.81292 14.228 1.82224 13.4745L1.82237 13.4634M30.1794 13.4745L1.82237 13.4634M1.82237 13.4634L1.82084 13.4524M1.82237 13.4634L1.82084 13.4524M1.82084 13.4524C1.8086 13.3653 1.80976 13.2768 1.82426 13.19L1.82604 13.1793M1.82084 13.4524L1.82604 13.1793M1.82604 13.1793L1.82623 13.1686M1.82604 13.1793L1.82623 13.1686M1.82623 13.1686C1.84753 11.9608 1.89676 10.9235 2.01562 10.0347M1.82623 13.1686L2.01562 10.0347M28.2916 10.2626C28.1094 8.90507 27.7631 8.09596 27.1676 7.50047C26.5722 6.90499 25.7631 6.55867 24.4068 6.37649L24.3875 6.52065L24.4068 6.37649C23.0242 6.19089 21.206 6.18853 18.6675 6.18853H13.3341C10.7956 6.18853 8.97871 6.19089 7.59611 6.37649C6.23854 6.55867 5.42943 6.90497 4.83394 7.50047C4.23846 8.09595 3.89215 8.90504 3.70997 10.2613C3.62906 10.8627 3.5835 11.5441 3.55676 12.329L3.55163 12.4794H3.70213H28.2995H28.45L28.4448 12.329C28.4181 11.5441 28.3725 10.8628 28.2916 10.2626ZM28.2916 10.2626L28.1475 10.282L28.2916 10.2625C28.2916 10.2626 28.2916 10.2626 28.2916 10.2626ZM18.7421 4.47944H13.2595C10.805 4.47944 8.87635 4.47974 7.36823 4.68214L18.7421 4.47944ZM18.7421 4.47944C21.1966 4.47944 23.1266 4.47974 24.6334 4.68214L18.7421 4.47944ZM2.01562 10.0347C2.22412 8.48814 2.65919 7.25862 3.62498 6.2915C4.59209 5.32572 5.8216 4.89065 7.36814 4.68215L2.01562 10.0347ZM3.67013 14.1885H3.52542L3.52468 14.3332C3.52201 14.8509 3.52201 15.4059 3.52201 16.0004V16.0007C3.52201 18.5392 3.52437 20.3561 3.70996 21.74L3.70997 21.74C3.89215 23.0963 4.23846 23.9054 4.83394 24.5008C5.42944 25.0963 6.23854 25.4426 7.59612 25.6248C8.97871 25.8104 10.7956 25.8128 13.3341 25.8128H18.6675C21.206 25.8128 23.0242 25.8104 24.4068 25.6248L24.3875 25.4807L24.4068 25.6248C25.7631 25.4426 26.5722 25.0963 27.1676 24.5008C27.7631 23.9053 28.1094 23.0962 28.2916 21.7387C28.4772 20.3561 28.4796 18.5392 28.4796 16.0007C28.4796 15.4061 28.4796 14.851 28.4769 14.3332L28.4762 14.1885H28.3315H3.67013ZM7.14625 21.334C7.14625 21.1073 7.23628 20.89 7.39654 20.7297C7.5568 20.5695 7.77416 20.4794 8.00079 20.4794H13.3341C13.5608 20.4794 13.7781 20.5695 13.9384 20.7297C14.0986 20.89 14.1887 21.1073 14.1887 21.334C14.1887 21.5606 14.0986 21.778 13.9384 21.9382C13.7781 22.0985 13.5608 22.1885 13.3341 22.1885H8.00079C7.77416 22.1885 7.5568 22.0985 7.39654 21.9382C7.23628 21.778 7.14625 21.5606 7.14625 21.334ZM15.8129 21.334C15.8129 21.1073 15.9029 20.89 16.0632 20.7297C16.2235 20.5695 16.4408 20.4794 16.6675 20.4794H18.6675C18.8941 20.4794 19.1115 20.5695 19.2717 20.7297C19.432 20.89 19.522 21.1073 19.522 21.334C19.522 21.5606 19.432 21.778 19.2717 21.9382C19.1115 22.0985 18.8941 22.1885 18.6675 22.1885H16.6675C16.4408 22.1885 16.2235 22.0985 16.0632 21.9382C15.9029 21.778 15.8129 21.5606 15.8129 21.334Z" fill="white" stroke="#1F1F1F" stroke-width="0.290909"/>
</svg>
