<svg width="16" height="18" viewBox="0 0 16 18" fill="none" xmlns="http://www.w3.org/2000/svg">
<path d="M8 0.78853C9.86857 0.78853 11.6606 1.53082 12.9819 2.8521C14.3032 4.17337 15.0455 5.96541 15.0455 7.83398C15.0455 10.7064 12.8446 13.8407 8.22727 17.3037C8.1617 17.3529 8.08196 17.3794 8 17.3794C7.91804 17.3794 7.83829 17.3529 7.77273 17.3037C3.15536 13.8407 0.954545 10.7064 0.954545 7.83398C0.954545 5.96541 1.69683 4.17337 3.01811 2.8521C4.33939 1.53082 6.13143 0.78853 8 0.78853ZM8 4.87944C7.21641 4.87944 6.46491 5.19072 5.91082 5.74481C5.35674 6.29889 5.04545 7.05039 5.04545 7.83398C5.04545 8.61758 5.35674 9.36908 5.91082 9.92316C6.46491 10.4772 7.21641 10.7885 8 10.7885C8.78359 10.7885 9.53509 10.4772 10.0892 9.92316C10.6433 9.36908 10.9545 8.61758 10.9545 7.83398C10.9545 7.05039 10.6433 6.29889 10.0892 5.74481C9.53509 5.19072 8.78359 4.87944 8 4.87944Z" stroke="white" stroke-width="0.909091"/>
</svg>
