<svg width="16" height="17" viewBox="0 0 16 17" fill="none" xmlns="http://www.w3.org/2000/svg">
<path d="M15.5 8.5C15.5 13 12.2075 16 8.1455 16C4.844 16 2.18 14.2487 1.25 11.5M0.5 8.5C0.5 4 3.7925 1 7.85525 1C11.156 1 13.8185 2.75125 14.75 5.5" stroke="white" stroke-width="0.984375" stroke-linecap="round" stroke-linejoin="round"/>
<path d="M4.25 12.25L1.25 11.5L0.5 14.5M11.75 4.75L14.75 5.5L15.5 2.5" stroke="white" stroke-width="0.984375" stroke-linecap="round" stroke-linejoin="round"/>
<path d="M10.4143 9.74525C10.4143 10.0827 10.3299 10.4 10.1611 10.697C9.99913 10.994 9.75613 11.2437 9.43213 11.4462C9.11488 11.6487 8.73688 11.7703 8.29813 11.8108V12.6309H7.64V11.8108C7.0055 11.75 6.4925 11.5509 6.101 11.2134C5.7095 10.8759 5.51375 10.4304 5.51375 9.87687H6.749C6.76925 10.1401 6.85363 10.3595 7.00213 10.535C7.15063 10.7037 7.36325 10.8117 7.64 10.859V8.6315C7.18775 8.51675 6.81988 8.402 6.53638 8.28725C6.25288 8.16575 6.00988 7.97675 5.80738 7.72025C5.61163 7.46375 5.51375 7.11275 5.51375 6.66725C5.51375 6.107 5.7095 5.64462 6.101 5.28012C6.4925 4.90887 7.0055 4.69287 7.64 4.63212V3.812H8.29813V4.63212C8.89213 4.68612 9.368 4.87512 9.72575 5.19912C10.0903 5.51637 10.2961 5.95512 10.3434 6.51537H9.10813C9.08788 6.30612 9.00688 6.1205 8.86513 5.9585C8.72338 5.78975 8.53438 5.675 8.29813 5.61425V7.80125C8.75038 7.90925 9.11825 8.024 9.40175 8.1455C9.68525 8.26025 9.92488 8.44587 10.1206 8.70237C10.3164 8.95212 10.4143 9.29975 10.4143 9.74525ZM6.68825 6.6065C6.68825 6.88325 6.76925 7.09925 6.93125 7.2545C7.1 7.40975 7.33625 7.53462 7.64 7.62912V5.58387C7.34975 5.61762 7.11688 5.72225 6.94138 5.89775C6.77263 6.07325 6.68825 6.3095 6.68825 6.6065ZM8.29813 10.859C8.59513 10.8117 8.828 10.6936 8.99675 10.5046C9.1655 10.3089 9.24988 10.076 9.24988 9.806C9.24988 9.536 9.1655 9.32675 8.99675 9.17825C8.83475 9.023 8.60188 8.89812 8.29813 8.80362V10.859Z" fill="white"/>
</svg>
