<svg width="20" height="21" viewBox="0 0 20 21" fill="none" xmlns="http://www.w3.org/2000/svg">
<path d="M7.5 6.75055H4.2375C5.04585 5.50826 6.23401 4.56045 7.62489 4.04841C9.01577 3.53638 10.5349 3.48754 11.9558 3.90917C13.3767 4.3308 14.6233 5.20033 15.5097 6.38813C16.3962 7.57594 16.8751 9.01842 16.875 10.5006H18.125C18.1267 8.82898 17.6128 7.19756 16.6534 5.82875C15.694 4.45993 14.3358 3.42033 12.7639 2.85172C11.192 2.28311 9.48297 2.21315 7.86987 2.65139C6.25677 3.08963 4.81809 4.01473 3.75 5.30055V3.00055H2.5V8.00055H7.5V6.75055ZM12.5 14.2506H15.7625C14.9542 15.4929 13.766 16.4407 12.3751 16.9527C10.9842 17.4647 9.46513 17.5136 8.04423 17.0919C6.62334 16.6703 5.37674 15.8008 4.49027 14.613C3.60379 13.4252 3.12491 11.9827 3.125 10.5006H1.875C1.87328 12.1721 2.38717 13.8035 3.34659 15.1724C4.306 16.5412 5.66426 17.5808 7.23614 18.1494C8.80803 18.718 10.517 18.788 12.1301 18.3497C13.7432 17.9115 15.1819 16.9864 16.25 15.7006V18.0006H17.5V13.0006H12.5V14.2506Z" fill="black"/>
<path d="M7.5 6.75055H4.2375C5.04585 5.50826 6.23401 4.56045 7.62489 4.04841C9.01577 3.53638 10.5349 3.48754 11.9558 3.90917C13.3767 4.3308 14.6233 5.20033 15.5097 6.38813C16.3962 7.57594 16.8751 9.01842 16.875 10.5006H18.125C18.1267 8.82898 17.6128 7.19756 16.6534 5.82875C15.694 4.45993 14.3358 3.42033 12.7639 2.85172C11.192 2.28311 9.48297 2.21315 7.86987 2.65139C6.25677 3.08963 4.81809 4.01473 3.75 5.30055V3.00055H2.5V8.00055H7.5V6.75055ZM12.5 14.2506H15.7625C14.9542 15.4929 13.766 16.4407 12.3751 16.9527C10.9842 17.4647 9.46513 17.5136 8.04423 17.0919C6.62334 16.6703 5.37674 15.8008 4.49027 14.613C3.60379 13.4252 3.12491 11.9827 3.125 10.5006H1.875C1.87328 12.1721 2.38717 13.8035 3.34659 15.1724C4.306 16.5412 5.66426 17.5808 7.23614 18.1494C8.80803 18.718 10.517 18.788 12.1301 18.3497C13.7432 17.9115 15.1819 16.9864 16.25 15.7006V18.0006H17.5V13.0006H12.5V14.2506Z" fill="white" fill-opacity="0.8"/>
</svg>
