<svg width="20" height="21" viewBox="0 0 20 21" fill="none" xmlns="http://www.w3.org/2000/svg">
<path d="M6.01515 3.82963L6.01515 4.66276V4.84458H5.83333H4.16969L4.05163 4.84851C3.67946 4.87743 3.33178 5.04548 3.0779 5.31927C2.82318 5.59395 2.6817 5.95476 2.68182 6.32937L2.68182 6.32943V16.3264L2.68575 16.4445C2.71467 16.8166 2.88272 17.1643 3.15651 17.4182C3.43119 17.6729 3.792 17.8144 4.16661 17.8143H4.16667H15.8303L15.9484 17.8103C16.3205 17.7814 16.6682 17.6134 16.9221 17.3396C17.1768 17.0649 17.3183 16.7041 17.3182 16.3295V16.3294V6.33245L17.3142 6.21439C17.2853 5.84222 17.1173 5.49454 16.8435 5.24066C16.5688 4.98594 16.208 4.84446 15.8334 4.84458H15.8333H14.1667H13.9848V4.66276V3.83486L13.9797 3.74833C13.96 3.59173 13.8842 3.44751 13.7662 3.34256C13.6469 3.23652 13.4929 3.17794 13.3333 3.17791L6.01515 3.82963ZM6.01515 3.82963C6.01515 3.82957 6.01515 3.8295 6.01515 3.82944C6.01515 3.82943 6.01515 3.82943 6.01515 3.82943C6.01539 3.66344 6.07897 3.5038 6.19292 3.3831C6.30691 3.26235 6.46271 3.18969 6.62848 3.17996C6.79426 3.17022 6.95749 3.22416 7.08483 3.33074C7.21089 3.43625 7.29236 3.58547 7.31301 3.74844M6.01515 3.82963L7.31301 3.74844M7.31301 3.74844L7.31818 3.83487V4.66276V4.84458H7.5H12.5H12.6818V4.66276V3.82943C12.6818 3.65663 12.7505 3.49092 12.8726 3.36874C12.9948 3.24656 13.1605 3.17792 13.3333 3.17791L7.31301 3.74844ZM16.0152 10.4961V10.3143H15.8333H4.16667H3.98485V10.4961V16.3294V16.5112H4.16667H15.8333H16.0152V16.3294V10.4961ZM16.0152 6.32943V6.14761H15.8333H4.16667H3.98485V6.32943V8.82943V9.01124H4.16667H15.8333H16.0152V8.82943V6.32943Z" fill="white" stroke="black" stroke-width="0.363636"/>
</svg>
